<svg t="1708752711408" class="icon" viewBox="0 0 1024 1024" version="1.1" xmlns="http://www.w3.org/2000/svg" p-id="4344" width="200" height="200"><path d="M648.720879 480.492308c-12.378022 0-18.004396 16.879121-15.753846 51.762637v29.257143c2.250549 14.628571 3.375824 27.006593 3.375824 36.008791H496.808791c0-12.378022 2.250549-24.756044 6.751649-36.008791 11.252747-47.261538 5.626374-74.268132-15.753847-81.01978-16.879121-2.250549-27.006593 22.505495-29.257142 74.268132-3.375824 86.646154 1.125275 154.162637 12.378022 203.674725 12.378022 49.512088 47.261538 72.017582 103.525274 67.516483 56.263736 4.501099 88.896703-19.12967 96.773627-70.892307 9.002198-30.382418 10.127473-104.650549 3.375824-222.804396-2.250549-30.382418-11.252747-47.261538-25.881319-51.762637zM638.593407 742.681319c-4.501099 30.382418-25.881319 43.885714-64.14066 41.635165-34.883516 0-58.514286-15.753846-70.892307-48.386814-6.751648-25.881319-10.127473-58.514286-10.127473-96.773626h145.16044c4.501099 49.512088 4.501099 84.395604 0 103.525275z" fill="#B19173" p-id="4345"></path><path d="M622.83956 131.657143c-11.252747-9.002198-19.12967-10.127473-25.881318-3.375824-6.751648 4.501099-13.503297 6.751648-22.505495 6.751648-60.764835 12.378022-121.52967 49.512088-184.545055 110.276923-60.764835 56.263736-97.898901 109.151648-113.652747 158.663736-2.250549 9.002198-2.250549 14.628571 0 19.129671 4.501099 4.501099 10.127473 4.501099 15.753846 0 23.630769-16.879121 45.010989-41.635165 64.14066-74.268132 25.881319-37.134066 50.637363-66.391209 74.268131-90.021978 25.881319 30.382418 46.136264 69.767033 61.89011 119.279121-45.010989 32.632967-82.145055 78.769231-110.276923 139.534066-25.881319 51.762637-45.010989 111.402198-58.514285 177.793406-12.378022 73.142857-14.628571 133.907692-6.751649 181.169231 2.250549 9.002198 6.751648 13.503297 12.378022 15.753846 6.751648 0 11.252747-4.501099 12.378022-12.378022 4.501099-6.751648 6.751648-24.756044 6.751648-55.138461 2.250549-12.378022 3.375824-21.38022 3.375825-25.881319 11.252747-108.026374 32.632967-196.923077 64.140659-268.940659 68.641758-127.156044 145.16044-180.043956 229.556044-158.663737 25.881319 9.002198 39.384615-5.626374 41.635165-41.635164 2.250549-66.391209-14.628571-124.905495-51.762638-174.417583-1.125275-7.876923-6.751648-15.753846-12.378022-23.630769z m5.626374 186.795604c-32.632967 4.501099-64.140659 14.628571-96.773626 32.632967-12.378022-32.632967-34.883516-73.142857-64.14066-122.654945 42.76044-32.632967 82.145055-46.136264 115.903297-41.635165 30.382418 9.002198 50.637363 40.50989 61.89011 96.773627 2.250549 21.38022-3.375824 32.632967-16.879121 34.883516z" fill="#B19173" p-id="4346"></path><path d="M850.145055 6.751648h-675.164835C81.582418 6.751648 6.189011 82.145055 6.189011 175.542857v675.164835c0 93.397802 75.393407 168.791209 168.791209 168.791209h675.164835c93.397802 0 168.791209-75.393407 168.791209-168.791209v-675.164835c0-93.397802-75.393407-168.791209-168.791209-168.791209z m123.78022 843.956044c0 68.641758-55.138462 123.78022-123.78022 123.78022h-675.164835c-68.641758 0-123.78022-55.138462-123.78022-123.78022v-675.164835c0-68.641758 55.138462-123.78022 123.78022-123.78022h675.164835c68.641758 0 123.78022 55.138462 123.78022 123.78022v675.164835z" fill="#B19173" p-id="4347"></path></svg>